{"title":"The Dead Zone, season 4 (DVD)","uid":5133941,"size":4400691200,"categoryP":"video","categoryS":"tv_shows","magnet":"?xt=urn:btih:363ea68a7a50689765014ca15df48da0dbfebc6c&amp;dn=The+Dead+Zone%2C+season+4+%28DVD%29&amp;tr=udp%3A%2F%2Ftracker.openbittorrent.com%3A80&amp;tr=udp%3A%2F%2Fopen.demonii.com%3A1337&amp;tr=udp%3A%2F%2Ftracker.coppersurfer.tk%3A6969&amp;tr=udp%3A%2F%2Fexodus.desync.com%3A6969","seeders":1,"leechers":1,"uploader":null,"files":12,"time":1256338447,"description":"Mediainfo from Dead_Zone,_The_-_4x01_-_Broken_Circle.english.TOPAZ.DVD.avi\nGeneral\nComplete name                    : D:The Dead Zone, season 4 (DVD)Dead_Zone,_The_-_4x01_-_Broken_Circle.english.TOPAZ.DVD.avi\nFormat                           : AVI\nFormat/Info                      : Audio Video Interleave\nFile size                        : 350 MiB\nDuration                         : 42mn 33s\nOverall bit rate                 : 1 150 Kbps\nWriting application              : VirtualDubMod 1.5.10.2 (build 2540/release)\nWriting library                  : VirtualDubMod build 2540/release\n\nVideo\nID                               : 0\nFormat                           : MPEG-4 Visual\nFormat profile                   : AdvancedSimple@L5\nFormat settings, BVOP            : Yes\nFormat settings, QPel            : No\nFormat settings, GMC             : No warppoints\nFormat settings, Matrix          : Default (MPEG)\nMuxing mode                      : Packed bitstream\nCodec ID                         : XVID\nCodec ID/Hint                    : XviD\nDuration                         : 42mn 33s\nBit rate                         : 980 Kbps\nWidth                            : 656 pixels\nHeight                           : 352 pixels\nDisplay aspect ratio             : 1.864\nFrame rate                       : 23.976 fps\nResolution                       : 24 bits\nColorimetry                      : 4:2:0\nScan type                        : Progressive\nBits/(Pixel*Frame)               : 0.177\nStream size                      : 298 MiB (85%)\nWriting library                  : XviD 1.1.0 (UTC 2005-11-22)\n\nAudio\nID                               : 1\nFormat                           : MPEG Audio\nFormat version                   : Version 1\nFormat profile                   : Layer 3\nCodec ID                         : 55\nCodec ID/Hint                    : MP3\nDuration                         : 42mn 33s\nBit rate mode                    : Variable\nBit rate                         : 157 Kbps\nMinimum bit rate                 : 128 Kbps\nChannel(s)                       : 2 channels\nSampling rate                    : 48.0 KHz\nResolution                       : 16 bits\nStream size                      : 47.7 MiB (14%)\nAlignment                        : Aligned on interleaves\nInterleave, duration             : 24 ms (0.58 video frame)\nInterleave, preload duration     : 411 ms\nWriting library                  : LAME3.97b\nEncoding settings                : -m j -V 2 -q 3 -lowpass 18.6 --vbr-new -b 128\n\n","torrent":{"xt":"urn:btih:363ea68a7a50689765014ca15df48da0dbfebc6c","amp;dn":"The+Dead+Zone%2C+season+4+%28DVD%29","amp;tr":["udp%3A%2F%2Ftracker.openbittorrent.com%3A80","udp%3A%2F%2Fopen.demonii.com%3A1337","udp%3A%2F%2Ftracker.coppersurfer.tk%3A6969","udp%3A%2F%2Fexodus.desync.com%3A6969"],"infoHash":"363ea68a7a50689765014ca15df48da0dbfebc6c","infoHashBuffer":{"type":"Buffer","data":[54,62,166,138,122,80,104,151,101,1,76,161,93,244,141,160,219,254,188,108]},"announce":[],"urlList":[]}}